<svg viewBox="0 0 87 18" fill="none" xmlns="http://www.w3.org/2000/svg">
<path d="M16.39 5.80197H19.712L15.862 17H11.66L9.87801 10.532L7.72201 17H3.54201L0.0440063 5.80197H3.52001L5.78601 13.788L8.36001 5.80197H11.572L13.794 13.854L16.39 5.80197Z" fill="#EC3434"/>
<path d="M31.3976 5.84597V17H28.0096L28.1196 15.328C27.3129 16.5893 26.1176 17.22 24.5336 17.22C23.5363 17.22 22.6856 16.9926 21.9816 16.538C21.2776 16.0833 20.7423 15.4526 20.3756 14.646C20.0089 13.8393 19.8256 12.9153 19.8256 11.874C19.8256 10.6273 20.0823 9.53464 20.5956 8.59597C21.1089 7.6573 21.7983 6.9313 22.6636 6.41797C23.5289 5.88997 24.4969 5.62597 25.5676 5.62597C26.2716 5.62597 26.8949 5.77264 27.4376 6.06597C27.9803 6.34464 28.3983 6.71864 28.6916 7.18797L28.9776 5.84597H31.3976ZM25.8976 8.55197C25.0909 8.55197 24.4529 8.85264 23.9836 9.45397C23.5289 10.0553 23.3016 10.8253 23.3016 11.764C23.3016 12.5706 23.4776 13.194 23.8296 13.634C24.1963 14.074 24.6876 14.294 25.3036 14.294C26.0516 14.294 26.6896 13.986 27.2176 13.37C27.7603 12.754 28.0316 11.9473 28.0316 10.95C28.0316 10.202 27.8409 9.6153 27.4596 9.18997C27.0783 8.76464 26.5576 8.55197 25.8976 8.55197Z" fill="#EC3434"/>
<path d="M41.6752 9.05797C41.3819 8.94064 40.9859 8.88197 40.4872 8.88197C39.7246 8.88197 39.1159 9.1533 38.6612 9.69597C38.2066 10.224 37.8766 11.0893 37.6712 12.292C37.4659 13.48 37.3632 15.0493 37.3632 17H34.0192V9.73997L33.9752 5.80197H37.3412L37.1872 8.59597C37.5832 7.5253 38.1112 6.76264 38.7712 6.30797C39.4459 5.8533 40.1646 5.62597 40.9272 5.62597C41.1766 5.62597 41.4039 5.64064 41.6092 5.66997C41.8292 5.6993 42.0492 5.75064 42.2692 5.82397L41.6752 9.05797Z" fill="#EC3434"/>
<path d="M46.9059 17.22C45.7766 17.22 44.9039 16.912 44.2879 16.296C43.6866 15.6653 43.3859 14.756 43.3859 13.568V0.719971H46.7519V13.326C46.7519 14.0006 47.0672 14.338 47.6979 14.338C48.0352 14.338 48.3212 14.2573 48.5559 14.096L49.3699 16.494C49.1206 16.6993 48.7759 16.868 48.3359 17C47.8959 17.1466 47.4192 17.22 46.9059 17.22Z" fill="#EC3434"/>
<path d="M55.5455 5.62597C57.2909 5.62597 58.6549 6.12464 59.6375 7.12197C60.6349 8.1193 61.1335 9.46864 61.1335 11.17C61.1335 12.3286 60.8842 13.3626 60.3855 14.272C59.8869 15.1813 59.1829 15.9 58.2735 16.428C57.3642 16.956 56.2935 17.22 55.0615 17.22C53.3309 17.22 51.9669 16.7213 50.9695 15.724C49.9869 14.7266 49.4955 13.3846 49.4955 11.698C49.4955 10.5246 49.7449 9.4833 50.2435 8.57397C50.7422 7.66464 51.4462 6.94597 52.3555 6.41797C53.2649 5.88997 54.3282 5.62597 55.5455 5.62597ZM55.2155 14.294C55.9635 14.294 56.5575 14.0153 56.9975 13.458C57.4522 12.886 57.6795 12.1233 57.6795 11.17C57.6795 10.3486 57.4815 9.71064 57.0855 9.25597C56.6895 8.78664 56.1469 8.55197 55.4575 8.55197C54.6949 8.55197 54.0862 8.83797 53.6315 9.40997C53.1915 9.9673 52.9715 10.7226 52.9715 11.676C52.9715 12.4973 53.1622 13.1426 53.5435 13.612C53.9395 14.0666 54.4969 14.294 55.2155 14.294Z" fill="#EC3434"/>
<path d="M68.299 17.22C67.1403 17.22 66.1357 17 65.285 16.56C64.4343 16.1053 63.7743 15.46 63.305 14.624C62.8357 13.788 62.601 12.7906 62.601 11.632C62.601 10.444 62.8503 9.40264 63.349 8.50797C63.8623 7.59864 64.5663 6.89464 65.461 6.39597C66.3557 5.88264 67.397 5.62597 68.585 5.62597C69.553 5.62597 70.411 5.81664 71.159 6.19797C71.907 6.5793 72.5083 7.1733 72.963 7.97997L70.587 9.78397C70.3523 9.35864 70.0737 9.05064 69.751 8.85997C69.443 8.6693 69.0543 8.57397 68.585 8.57397C67.8663 8.57397 67.2723 8.85264 66.803 9.40997C66.3337 9.95264 66.099 10.6713 66.099 11.566C66.099 12.4313 66.3043 13.0986 66.715 13.568C67.1403 14.0373 67.749 14.272 68.541 14.272C68.9663 14.272 69.355 14.1766 69.707 13.986C70.0737 13.7806 70.3817 13.4653 70.631 13.04L72.941 14.888C72.4423 15.7386 71.7823 16.34 70.961 16.692C70.1543 17.044 69.267 17.22 68.299 17.22Z" fill="#EC3434"/>
<path d="M74.1086 17V0.719971H77.4746V10.268L81.6326 5.80197H85.6366L80.5766 11.214C80.9139 11.4193 81.1926 11.6906 81.4126 12.028L82.2706 13.37C82.7252 14.074 83.3632 14.426 84.1846 14.426C84.6246 14.426 85.0426 14.316 85.4386 14.096L86.1646 16.582C85.7539 16.8166 85.3286 16.9853 84.8886 17.088C84.4632 17.1906 84.0086 17.2346 83.5246 17.22C82.5712 17.2053 81.7792 17.0293 81.1486 16.692C80.5326 16.3546 79.9752 15.7826 79.4766 14.976L78.6186 13.634C78.4132 13.3113 78.2226 13.0473 78.0466 12.842C77.8706 12.6366 77.6799 12.4753 77.4746 12.358V17H74.1086Z" fill="#EC3434"/>
</svg>
